<?xml version="1.0" standalone="no"?>
<!DOCTYPE svg PUBLIC "-//W3C//DTD SVG 20010904//EN"
 "http://www.w3.org/TR/2001/REC-SVG-20010904/DTD/svg10.dtd">
<svg version="1.0" xmlns="http://www.w3.org/2000/svg"
 width="700.000000pt" height="700.000000pt" viewBox="0 0 700.000000 700.000000"
 preserveAspectRatio="xMidYMid meet">
<metadata>
Created by potrace 1.14, written by Peter Selinger 2001-2017
</metadata>
<g transform="translate(0.000000,700.000000) scale(0.100000,-0.100000)"
fill="#000000" stroke="none">
<path d="M3298 6996 c-1 -2 -41 -6 -88 -10 -47 -3 -95 -8 -107 -10 -12 -3 -47
-7 -78 -11 -192 -20 -488 -100 -733 -196 -350 -138 -680 -341 -971 -598 -87
-77 -173 -163 -256 -256 -38 -43 -77 -86 -86 -95 -29 -30 -164 -212 -216 -290
-148 -222 -295 -525 -373 -765 -17 -55 -34 -107 -37 -115 -4 -8 -7 -19 -8 -25
-2 -5 -13 -48 -25 -95 -12 -47 -24 -96 -26 -110 -2 -14 -7 -36 -10 -50 -6 -27
-10 -44 -24 -130 -42 -255 -48 -634 -15 -945 15 -141 90 -465 141 -608 14 -40
27 -79 29 -87 16 -75 173 -406 260 -550 54 -90 137 -218 162 -250 170 -219
207 -262 343 -399 351 -355 788 -627 1265 -789 114 -38 302 -90 390 -107 22
-5 45 -9 50 -10 6 -2 46 -8 90 -15 44 -6 91 -13 105 -15 197 -30 525 -35 755
-10 136 14 184 22 355 56 68 13 302 76 350 94 19 7 69 25 110 40 211 77 492
222 685 354 83 57 232 168 275 206 110 97 148 133 239 225 340 345 614 795
767 1259 28 84 99 356 108 411 3 19 12 78 20 130 24 152 31 260 31 500 0 218
-4 292 -26 450 -11 80 -44 255 -53 280 -3 8 -7 27 -10 41 -31 187 -205 623
-336 844 -60 102 -61 103 -114 185 -336 514 -850 946 -1429 1199 -108 47 -292
114 -377 138 -113 31 -196 52 -225 58 -95 18 -319 55 -370 60 -61 7 -530 16
-537 11z"/>
</g>
</svg>
